<?xml version="1.0" encoding="utf-8"?>
<!-- Generator: Adobe Illustrator 25.4.8, SVG Export Plug-In . SVG Version: 6.00 Build 0)  -->
<svg version="1.1" id="Ebene_1" xmlns="http://www.w3.org/2000/svg" xmlns:xlink="http://www.w3.org/1999/xlink" x="0px" y="0px"
	 viewBox="0 0 512 512" style="enable-background:new 0 0 512 512;" xml:space="preserve">
<style type="text/css">
	.st0{fill:#FFFFFF;}
	.st1{fill:#5E3636;}
	.st2{fill:#FF0000;}
</style>
<polygon class="st0" points="21,160 53,153 47,125 105,113 159,112 193,123 207,107 202,89 230,101 251,114 284,99 317,88 355,80 
	409,68 423,72 424,111 452,124 465,131 465,163 506,160 501,434 6,439 8,155 "/>
<polygon class="st1" points="8,165 7,438 502,439 503,158 463,161 460,400 364,377 256,390 119,382 43,398 47,162 "/>
<g transform="translate(0.000000,512.000000) scale(0.100000,-0.100000)">
	<path d="M3980,4473c-488-33-828-112-1135-263c-77-38-173-94-214-125c-73-56-74-56-95-37c-74,68-272,178-428,238
		c-98,38-124,41-156,18c-45-31-45-55-3-173l39-109l-36-35l-37-36l-84,25c-223,65-557,91-813,65c-242-25-571-109-603-153
		c-12-18-15-52-15-155v-133H225c-173,0-176,0-200-25l-25-24V2120V689l25-24l24-25h2511h2511l24,25l25,24v1431v1431l-25,24
		c-24,25-27,25-200,25h-175v133c0,102-3,138-15,154c-20,28-141,68-357,117l-28,6v211c0,210,0,210-25,234c-23,24-29,25-147,23
		C4080,4477,4005,4475,3980,4473z M4160,3041V1763l-132-7c-557-29-1025-150-1326-342c-29-19-55-34-57-34c-3,0-4,566-3,1257l3,1258
		l70,53c168,127,472,246,783,306c162,32,420,60,595,64l67,2V3041z M2223,4061c83-43,147-84,215-138l42-34V2629c0-692-3-1259-6-1259
		s-18,8-32,19c-51,35-207,118-287,152c-44,18-81,34-83,35c-1,0,18,37,43,80s45,90,45,102c0,15-21,46-60,86c-33,35-60,66-60,71
		s27,36,60,71c79,82,79,96,0,178c-33,35-60,66-60,71s27,36,60,71c82,85,80,104-18,206l-46,47l62,65c83,86,82,107-11,203l-51,52
		l62,65c83,86,83,103,1,191l-62,65l62,64c82,87,82,105-1,192l-61,64l61,64c83,87,83,105,1,192l-62,64l62,65c66,71,70,86,46,154
		c-8,22-11,41-7,41S2180,4082,2223,4061z M1600,3866c47-9,121-26,165-39c74-20,84-27,139-85l59-62l-61-64c-83-86-83-103-1-191l62-65
		l-62-64c-82-87-82-105,1-192l61-64l-61-64c-83-87-83-105,0-192l61-64l-61-64c-83-87-83-105-1-192l62-64l-62-65c-82-88-82-105,1-191
		l62-65l-51-52c-95-98-95-116-3-212l70-72l-55-94c-30-52-55-104-55-116c0-36,40-69,120-99c41-15,102-40,135-56l60-29l-48,5
		c-27,3-117,14-200,23c-195,22-734,25-877,5c-189-27-395-79-473-118l-27-15l2,1267l3,1267l38,13c61,21,254,62,367,78
		C1109,3894,1478,3889,1600,3866z M4560,2519V1252l-62,25c-87,35-270,80-402,98c-253,36-701,30-1039-14c-75-9-137-16-137-14
		c0,8,136,64,238,98c268,90,561,138,932,152c174,6,185,8,207,29l23,23v1100v1099l120-31l120-31V2519z M400,2265V1089l25-24
		c33-34,62-31,147,14c86,46,188,82,313,110c180,39,270,46,585,45c340,0,537-18,875-77c99-17,196-31,215-31s118,14,220,31
		c370,64,682,89,995,80c353-10,610-64,789-166c65-37,99-39,131-6l25,24v1176v1175h120h120V2120V800H2560H160v1320v1320h120h120V2265
		z"/>
	<path d="M3755,4069c-218-22-452-74-658-146c-171-59-273-106-286-131c-25-47,1-104,52-117c14-4,73,14,161,50
		c256,103,512,163,789,187c125,11,145,15,165,35c30,30,29,77-3,108C3948,4083,3910,4085,3755,4069z"/>
	<path d="M3697,3675c-241-29-495-94-728-186c-163-65-198-103-153-167c32-47,55-46,187,7c285,114,555,178,822,196
		c118,8,131,11,155,37c27,30,26,73-5,103c-21,22-32,25-97,24C3838,3688,3756,3682,3697,3675z"/>
	<path d="M3770,3294c-14-2-65-9-115-15c-213-26-463-91-688-181c-165-66-198-105-146-172c28-36,69-34,167,8c252,108,579,186,847,203
		c102,6,112,8,137,34c35,34,36,72,3,104c-22,23-32,25-102,24C3830,3298,3784,3296,3770,3294z"/>
	<path d="M3740,2903c-262-29-560-105-803-205c-133-55-165-100-116-162c27-34,68-34,145,0c246,110,583,192,873,213
		c107,7,116,10,138,35c28,34,29,65,2,100c-20,25-24,26-112,24C3816,2908,3759,2905,3740,2903z"/>
	<path d="M3800,2519c-297-25-658-116-904-228c-77-35-95-53-96-94c0-35,40-77,74-77c14,0,65,16,113,36c250,104,508,170,754,194
		c63,6,138,13,166,16c41,4,57,11,73,31c26,34,25,66-2,97C3949,2526,3927,2529,3800,2519z"/>
	<path d="M3835,2133c-308-25-624-99-901-214c-108-44-134-66-134-111c0-35,39-78,71-78c12,0,76,22,143,49c272,110,536,171,855,197
		c70,5,88,10,108,30c53,53,5,137-75,132C3887,2137,3857,2135,3835,2133z"/>
</g>
<path class="st2" d="M-135,284"/>
</svg>
