<?xml version="1.0" encoding="utf-8"?>
<!-- Generator: Adobe Illustrator 26.3.1, SVG Export Plug-In . SVG Version: 6.00 Build 0)  -->
<svg version="1.1" id="Layer_1" xmlns="http://www.w3.org/2000/svg" xmlns:xlink="http://www.w3.org/1999/xlink" x="0px" y="0px"
	 viewBox="0 0 512 512" style="enable-background:new 0 0 512 512;" xml:space="preserve">
<style type="text/css">
	.st0{fill:#FFFFFF;}
</style>
<g>
	<g>
		<path class="st0" d="M472.8,267.8h13.4c14.2,0,25.8-11.6,25.8-25.8c0-6.9-2.7-13.4-7.6-18.3c-4.9-4.9-11.4-7.5-18.2-7.5h-15
			c24.7-18.2,40.8-47.5,40.8-80.5c0-55-44.8-99.8-99.8-99.8H25.8C11.6,35.9,0,47.5,0,61.7s11.6,25.8,25.8,25.8h13.4
			c11.7,30.9,11.7,65.4,0,96.4H25.8C11.6,183.9,0,195.5,0,209.7s11.6,25.8,25.8,25.8h15C16.1,253.8,0,283,0,316
			c0,26.6,10.4,51.7,29.2,70.6c16.6,16.6,37.9,26.6,61,28.8v51c0,3.4,1.8,6.6,4.7,8.3c2.9,1.7,6.6,1.8,9.6,0.2l38.6-20.8l38.6,20.8
			c1.4,0.8,3,1.2,4.6,1.2c1.7,0,3.4-0.5,5-1.4c2.9-1.7,4.7-4.9,4.7-8.3v-50.6h290.2c14.2,0,25.8-11.6,25.8-25.8
			c0-6.9-2.7-13.4-7.6-18.3c-4.9-4.9-11.4-7.5-18.2-7.5h-13.4c-4-10.4-6.6-21.3-7.9-32.4c-0.6-5.2-0.9-10.5-0.9-15.8
			s0.3-10.6,0.9-15.8C466.2,289.1,468.8,278.3,472.8,267.8z M25.8,216.2c-3.6,0-6.5-2.9-6.5-6.5s2.9-6.5,6.5-6.5h383.4
			c24.8,0,47.6-13.5,59.4-35.4c10.9-20.2,10.9-44.2,0-64.4c-11.8-21.8-34.6-35.4-59.4-35.4H45.8H25.8c-3.6,0-6.5-2.9-6.5-6.5
			c0-3.6,2.9-6.5,6.5-6.5h386.3c44.4,0,80.5,36.1,80.5,80.5c0,44.4-36.1,80.4-80.4,80.5L25.8,216.2L25.8,216.2z M164.5,143H67.2
			c0.2-4.8,0.2-9.7,0-14.5h48c5.3,0,9.7-4.3,9.7-9.7c0-5.3-4.3-9.7-9.7-9.7H65.1c-1.3-7.3-3-14.5-5.3-21.5h349.4
			c17.7,0,33.9,9.7,42.4,25.2c7.8,14.4,7.8,31.5,0,45.9c-8.4,15.6-24.7,25.2-42.4,25.2H59.8c2.3-7.1,4-14.3,5.3-21.5h99.4
			c5.3,0,9.7-4.3,9.7-9.7C174.1,147.3,169.8,143,164.5,143z M176.6,450.2l-28.9-15.6c-1.4-0.8-3-1.2-4.6-1.2s-3.2,0.4-4.6,1.2
			l-28.9,15.6V342.7h67L176.6,450.2L176.6,450.2z M186.3,323.3H99.9c-5.3,0-9.7,4.3-9.7,9.7v29.5c-4.2-1.1-8.3-2.8-12-5.1
			c-7.5-4.4-13.6-10.8-17.7-18.4c-3.8-7-5.8-15-5.8-23c0-8,2-15.9,5.8-23c8.4-15.6,24.7-25.2,42.3-25.2h349.4
			c-2.3,7-4.1,14.2-5.3,21.5h-50c-5.3,0-9.7,4.3-9.7,9.7c0,5.3,4.3,9.7,9.7,9.7h47.9c-0.1,2.4-0.2,4.9-0.2,7.3s0.1,4.8,0.2,7.3
			h-97.2c-5.3,0-9.7,4.3-9.7,9.7s4.3,9.7,9.7,9.7h99.3c1.3,7.3,3,14.5,5.3,21.5H196v-21.5h31.6c5.3,0,9.7-4.3,9.7-9.7
			s-4.3-9.7-9.7-9.7L186.3,323.3L186.3,323.3z M486.2,383.6c1.7,0,3.3,0.7,4.6,1.9c1.2,1.2,1.9,2.8,1.9,4.6c0,3.6-2.9,6.5-6.5,6.5
			H196v-12.9H486.2z M102.8,248.5c-24.8,0-47.6,13.6-59.4,35.4c-5.3,9.8-8.2,21-8.2,32.2c0,11.2,2.8,22.3,8.2,32.2
			c5.8,10.7,14.4,19.6,24.8,25.8c6.8,4,14.2,6.8,22,8.3v13.5c-17.8-2.1-34.4-10.1-47.3-23c-15.2-15.2-23.6-35.4-23.6-56.9
			c0-44.4,36.1-80.4,80.4-80.5h312.4c0,0,0,0,0,0h74c1.7,0,3.4,0.7,4.6,1.9c1.2,1.2,1.9,2.9,1.9,4.6c0,3.6-2.9,6.5-6.5,6.5
			L102.8,248.5L102.8,248.5z"/>
	</g>
</g>
<g>
	<g>
		<circle class="st0" cx="198" cy="152.7" r="9.7"/>
	</g>
</g>
</svg>
