<?xml version="1.0" encoding="utf-8"?>
<!-- Generator: Adobe Illustrator 25.4.8, SVG Export Plug-In . SVG Version: 6.00 Build 0)  -->
<svg version="1.1" id="Layer_1" xmlns="http://www.w3.org/2000/svg" xmlns:xlink="http://www.w3.org/1999/xlink" x="0px" y="0px"
	 viewBox="0 0 512 512" style="enable-background:new 0 0 512 512;" xml:space="preserve">
<style type="text/css">
	.st0{fill:#FFFFFF;}
</style>
<g>
	<g>
		<g>
			<path class="st0" d="M503.5,397.8h-55.9l19.8-5.3c4.5-1.2,7.2-5.9,6-10.4l-13.3-49.5v0l-8.8-33h0L385.1,52.3
				c-1.2-4.6-5.9-7.3-10.4-6l-82.4,22.1c-2.2,0.6-4,2-5.2,4c-1.1,2-1.4,4.3-0.9,6.5l13.3,49.5v0l5.1,19c-6.9-3.5-14.7-5.5-22.9-5.5
				H34.1c-3.1,0-5.9,1.7-7.4,4.3c-1.5,2.7-1.5,6,0.1,8.6l9.8,16.4c8.1,13.5,8.1,30.3,0,43.8l-7.4,12.3H8.5c-3.1,0-5.9,1.7-7.4,4.3
				c-1.5,2.7-1.5,6,0.1,8.6l9.8,16.4c8.1,13.5,8.1,30.3,0,43.8l-9.8,16.4c-1.6,2.6-1.6,5.9-0.1,8.6c1.5,2.7,4.4,4.3,7.4,4.3h20.8
				l7.4,12.3c8.1,13.5,8.1,30.3,0,43.8l-7.4,12.3H8.5c-4.7,0-8.5,3.8-8.5,8.5v51.2c0,4.7,3.8,8.5,8.5,8.5h494.9
				c4.7,0,8.5-3.8,8.5-8.5v-51.2C512,401.6,508.2,397.8,503.5,397.8z M395.3,288.1c-0.7,0.2-1.5,0.3-2.2,0.3c-3.8,0-7.2-2.5-8.2-6.3
				l-26.5-98.9c-1.2-4.5,1.5-9.2,6-10.4c4.5-1.2,9.2,1.5,10.4,6l26.5,98.9C402.5,282.2,399.8,286.9,395.3,288.1z M384.1,114.4
				l4.4,16.5l-65.9,17.7l-4.4-16.5L384.1,114.4z M370.8,65l8.8,33l-65.9,17.7l-8.8-33L370.8,65z M51.3,162.3l-2.1-3.5h232.4
				c15.6,0,28.6,10.5,32.7,24.8l0.8,3.1c0.4,2,0.6,4.1,0.6,6.2c0,18.8-15.3,34.1-34.1,34.1H256H49.2l2.1-3.5
				C62.6,204.7,62.6,181.2,51.3,162.3z M264.5,278.3c0,4.7-3.8,8.5-8.5,8.5H68.3c-4.7,0-8.5-3.8-8.5-8.5s3.8-8.5,8.5-8.5H256
				C260.7,269.8,264.5,273.6,264.5,278.3z M281.6,397.8H49.2l2.1-3.5c11.3-18.9,11.3-42.4,0-61.3l-2.1-3.5H256h25.6
				c18.8,0,34.1,15.3,34.1,34.1C315.7,382.4,300.4,397.8,281.6,397.8z M319.7,397.8c8.1-9.1,13.1-21,13.1-34.1
				c0-24.4-17.1-44.7-39.9-49.9c8.8-9.2,14.3-21.7,14.3-35.4s-5.5-26.2-14.3-35.4c13.1-3,24.3-10.9,31.4-21.7l47.3,176.6
				L319.7,397.8L319.7,397.8z M371.1,329.9l65.9-17.7l4.4,16.5l-65.9,17.7L371.1,329.9z M380,362.9l65.9-17.7l8.8,33l-65.9,17.7
				L380,362.9z"/>
			<path class="st0" d="M281.6,355.1H93.9c-4.7,0-8.5,3.8-8.5,8.5s3.8,8.5,8.5,8.5h187.7c4.7,0,8.5-3.8,8.5-8.5
				C290.1,358.9,286.3,355.1,281.6,355.1z"/>
			<path class="st0" d="M93.9,201.5h187.7c4.7,0,8.5-3.8,8.5-8.5s-3.8-8.5-8.5-8.5H93.9c-4.7,0-8.5,3.8-8.5,8.5
				C85.3,197.7,89.2,201.5,93.9,201.5z"/>
		</g>
	</g>
</g>
</svg>
